<svg width="21" height="21" viewBox="0 0 21 21" fill="none" xmlns="http://www.w3.org/2000/svg">
<path d="M10.8735 18.9583C9.73012 18.9583 8.65827 18.7406 7.65783 18.305C6.65742 17.8694 5.7863 17.2807 5.0445 16.539C4.30269 15.7971 3.71401 14.926 3.27846 13.9256C2.8429 12.9252 2.62512 11.8533 2.62512 10.71C2.62512 8.72278 3.25804 6.97034 4.52387 5.4527C5.78971 3.93507 7.40262 2.9925 9.36262 2.625C9.11762 3.95889 9.19244 5.26895 9.58717 6.5552C9.98189 7.84148 10.6624 8.96778 11.6288 9.93417C12.5952 10.9006 13.7216 11.5845 15.0078 11.986C16.2941 12.3876 17.611 12.4658 18.9585 12.2208C18.6046 14.1808 17.6654 15.7937 16.141 17.0595C14.6165 18.3254 12.8607 18.9583 10.8735 18.9583ZM10.8735 17.7333C12.2346 17.7333 13.4732 17.3455 14.5893 16.5695C15.7054 15.7937 16.6037 14.8069 17.2843 13.6092C16.0593 13.5003 14.8819 13.2179 13.7522 12.7619C12.6224 12.3059 11.6289 11.6492 10.7714 10.7917C9.9003 9.93417 9.24012 8.94398 8.79096 7.82102C8.34179 6.69813 8.06272 5.53097 7.95383 4.31958C6.75609 4.97292 5.77269 5.86104 5.00366 6.98395C4.23463 8.10686 3.85012 9.34889 3.85012 10.71C3.85012 12.6564 4.53408 14.3135 5.90199 15.6815C7.26991 17.0494 8.92707 17.7333 10.8735 17.7333Z" fill="#F5F7FF"/>
</svg>
