<svg width="20" height="20" viewBox="0 0 20 20" fill="none" xmlns="http://www.w3.org/2000/svg">
<path d="M10 1.66675C5.40501 1.66675 1.66667 4.65758 1.66667 8.33342C1.66667 10.7567 3.24751 12.9301 5.83334 14.1117V18.3334L10.2833 14.9967C14.7475 14.8767 18.3333 11.9334 18.3333 8.33342C18.3333 4.65758 14.595 1.66675 10 1.66675ZM7.91667 9.16675C7.58515 9.16675 7.26721 9.03505 7.03279 8.80063C6.79837 8.56621 6.66667 8.24827 6.66667 7.91675C6.66667 7.58523 6.79837 7.26729 7.03279 7.03286C7.26721 6.79844 7.58515 6.66675 7.91667 6.66675C8.24819 6.66675 8.56614 6.79844 8.80056 7.03286C9.03498 7.26729 9.16667 7.58523 9.16667 7.91675C9.16667 8.24827 9.03498 8.56621 8.80056 8.80063C8.56614 9.03505 8.24819 9.16675 7.91667 9.16675ZM12.0833 9.16675C11.7518 9.16675 11.4339 9.03505 11.1995 8.80063C10.965 8.56621 10.8333 8.24827 10.8333 7.91675C10.8333 7.58523 10.965 7.26729 11.1995 7.03286C11.4339 6.79844 11.7518 6.66675 12.0833 6.66675C12.4149 6.66675 12.7328 6.79844 12.9672 7.03286C13.2016 7.26729 13.3333 7.58523 13.3333 7.91675C13.3333 8.24827 13.2016 8.56621 12.9672 8.80063C12.7328 9.03505 12.4149 9.16675 12.0833 9.16675Z" fill="#0EB1D2"/>
</svg>
