<svg width="20" height="20" viewBox="0 0 20 20" fill="none" xmlns="http://www.w3.org/2000/svg">
<path d="M16.6667 3.33325H3.33334C2.89131 3.33325 2.46739 3.50885 2.15483 3.82141C1.84227 4.13397 1.66667 4.55789 1.66667 4.99992V14.9999C1.66667 15.4419 1.84227 15.8659 2.15483 16.1784C2.46739 16.491 2.89131 16.6666 3.33334 16.6666H16.6667C17.1087 16.6666 17.5326 16.491 17.8452 16.1784C18.1577 15.8659 18.3333 15.4419 18.3333 14.9999V4.99992C18.3333 4.55789 18.1577 4.13397 17.8452 3.82141C17.5326 3.50885 17.1087 3.33325 16.6667 3.33325ZM16.6667 7.24992L10 11.6949L3.33334 7.24992V5.24742L10 9.69158L16.6667 5.24742V7.24992Z" fill="#0EB1D2"/>
</svg>
