<svg width="20" height="20" viewBox="0 0 20 20" fill="none" xmlns="http://www.w3.org/2000/svg">
<path d="M9.99169 1.66675C5.39335 1.66675 1.66669 5.39425 1.66669 9.99175C1.66669 13.5184 3.86085 16.5334 6.95835 17.7467C6.88502 17.0884 6.82002 16.0751 6.98669 15.3567C7.13835 14.7067 7.96335 11.2184 7.96335 11.2184C7.96335 11.2184 7.71419 10.7192 7.71419 9.98175C7.71419 8.82508 8.38502 7.96092 9.22085 7.96092C9.93169 7.96092 10.2742 8.49425 10.2742 9.13342C10.2742 9.84842 9.81919 10.9159 9.58502 11.9059C9.38919 12.7342 10.0009 13.4101 10.8175 13.4101C12.2967 13.4101 13.435 11.8501 13.435 9.59758C13.435 7.60425 12.0025 6.21092 9.95752 6.21092C7.58835 6.21092 6.19752 7.98758 6.19752 9.82342C6.19752 10.5384 6.47335 11.3059 6.81752 11.7234C6.84677 11.7549 6.86742 11.7933 6.87749 11.835C6.88756 11.8768 6.88671 11.9204 6.87502 11.9617C6.81169 12.2242 6.67085 12.7901 6.64419 12.9059C6.60752 13.0584 6.52335 13.0909 6.36502 13.0176C5.32585 12.5334 4.67585 11.0134 4.67585 9.79175C4.67585 7.16592 6.58335 4.75425 10.1767 4.75425C13.065 4.75425 15.3092 6.81175 15.3092 9.56258C15.3092 12.4326 13.5 14.7401 10.9892 14.7401C10.145 14.7401 9.35252 14.3026 9.08085 13.7851L8.56169 15.7634C8.37419 16.4868 7.86669 17.3934 7.52752 17.9467C8.32595 18.1932 9.15691 18.3183 9.99252 18.3176C14.59 18.3176 18.3175 14.5901 18.3175 9.99258C18.3175 5.39508 14.5892 1.66675 9.99169 1.66675Z" fill="#0EB1D2"/>
</svg>
