<svg width="20" height="20" viewBox="0 0 20 20" fill="none" xmlns="http://www.w3.org/2000/svg">
<path d="M10.5917 1.90833C10.5142 1.83023 10.4221 1.76823 10.3205 1.72592C10.219 1.68362 10.11 1.66183 10 1.66183C9.89002 1.66183 9.7811 1.68362 9.67955 1.72592C9.578 1.76823 9.48583 1.83023 9.40836 1.90833L1.90836 9.40833C1.83026 9.4858 1.76826 9.57797 1.72595 9.67952C1.68365 9.78107 1.66187 9.88999 1.66187 10C1.66187 10.11 1.68365 10.2189 1.72595 10.3205C1.76826 10.422 1.83026 10.5142 1.90836 10.5917C1.98623 10.6689 2.07858 10.73 2.18011 10.7715C2.28164 10.8129 2.39036 10.834 2.50003 10.8333H3.33336V16.6667C3.33336 17.1087 3.50896 17.5326 3.82152 17.8452C4.13408 18.1577 4.558 18.3333 5.00003 18.3333H15C15.4421 18.3333 15.866 18.1577 16.1785 17.8452C16.4911 17.5326 16.6667 17.1087 16.6667 16.6667V10.8333H17.5C17.721 10.8333 17.933 10.7455 18.0893 10.5893C18.2456 10.433 18.3334 10.221 18.3334 10C18.334 9.89033 18.313 9.78161 18.2715 9.68008C18.23 9.57855 18.1689 9.4862 18.0917 9.40833L10.5917 1.90833ZM5.00003 16.6667V8.675L10 3.675L15 8.675V16.6667H5.00003Z" fill="white"/>
</svg>
