<svg width="20" height="20" viewBox="0 0 20 20" fill="none" xmlns="http://www.w3.org/2000/svg">
<path d="M4.16675 7.49916C4.16675 9.08416 4.80425 10.5217 5.83341 11.5742V17.5C5.83289 17.6422 5.86885 17.7822 5.93786 17.9066C6.00687 18.031 6.10663 18.1356 6.22759 18.2104C6.34856 18.2852 6.4867 18.3278 6.6288 18.334C6.7709 18.3402 6.91222 18.3098 7.03925 18.2458L10.0001 16.765L12.9609 18.245C13.0876 18.3091 13.2287 18.3395 13.3706 18.3332C13.5125 18.3269 13.6503 18.2842 13.7709 18.2092C14.0167 18.0567 14.1667 17.7892 14.1667 17.5V11.575C15.2353 10.4875 15.8338 9.02375 15.8334 7.49916C15.8334 4.28332 13.2167 1.66666 10.0001 1.66666C6.78342 1.66666 4.16675 4.28332 4.16675 7.49916ZM10.3726 15.0875C10.2568 15.0296 10.1291 14.9994 9.99967 14.9994C9.8702 14.9994 9.74252 15.0296 9.62675 15.0875L7.50008 16.1517V12.7625C8.25925 13.1242 9.10508 13.3333 10.0001 13.3333C10.8951 13.3333 11.7409 13.125 12.5001 12.7625V16.1508L10.3726 15.0875ZM10.0001 3.33332C12.2967 3.33332 14.1667 5.20166 14.1667 7.49916C14.1656 8.60396 13.7263 9.66322 12.9452 10.4445C12.1641 11.2258 11.1049 11.6653 10.0001 11.6667C7.70258 11.6667 5.83341 9.79749 5.83341 7.49916C5.83474 6.39457 6.27418 5.33562 7.05532 4.55464C7.83645 3.77365 8.8955 3.33443 10.0001 3.33332Z" fill="#6C7493"/>
</svg>
