<svg width="23" height="23" viewBox="0 0 23 23" fill="none" xmlns="http://www.w3.org/2000/svg">
<path d="M10.9489 3.59377V1.19794H12.051V3.59377H10.9489ZM10.9489 21.8021V19.4063H12.051V21.8021H10.9489ZM19.4062 12.0511V10.949H21.802V12.0511H19.4062ZM1.19788 12.0511V10.949H3.59371V12.0511H1.19788ZM17.6333 6.13335L16.8427 5.34273L18.3041 3.90523L19.0708 4.6719L17.6333 6.13335ZM4.69579 19.0948L3.92913 18.3281L5.36663 16.8667L6.15725 17.6334L4.69579 19.0948ZM18.3041 19.0948L16.8427 17.6334L17.6333 16.8667L19.0708 18.3281L18.3041 19.0948ZM5.36663 6.13335L3.92913 4.6719L4.69579 3.90523L6.15725 5.34273L5.36663 6.13335ZM11.5 16.5073C10.1104 16.5073 8.92843 16.0202 7.95413 15.0459C6.97982 14.0715 6.49267 12.8896 6.49267 11.5C6.49267 10.1104 6.97982 8.92849 7.95413 7.95419C8.92843 6.97988 10.1104 6.49273 11.5 6.49273C12.8895 6.49273 14.0715 6.97988 15.0458 7.95419C16.0201 8.92849 16.5073 10.1104 16.5073 11.5C16.5073 12.8896 16.0201 14.0715 15.0458 15.0459C14.0715 16.0202 12.8895 16.5073 11.5 16.5073ZM11.5 15.4052C12.5861 15.4052 13.5125 15.0299 14.2791 14.2792C15.0458 13.5285 15.4291 12.6021 15.4291 11.5C15.4291 10.4139 15.0498 9.48752 14.2911 8.72085C13.5324 7.95419 12.602 7.57085 11.5 7.57085C10.3979 7.57085 9.47149 7.95019 8.72079 8.70887C7.9701 9.46756 7.59475 10.3979 7.59475 11.5C7.59475 12.6021 7.9701 13.5285 8.72079 14.2792C9.47149 15.0299 10.3979 15.4052 11.5 15.4052Z" fill="#F5F7FF"/>
</svg>
