<svg width="18" height="18" viewBox="0 0 18 18" fill="none" xmlns="http://www.w3.org/2000/svg">
<path d="M8.619 16.3283C8.8395 16.446 9.11625 16.446 9.33675 16.3275C15.3457 13.0995 15.7725 6.79276 15.7672 4.99951C15.7667 4.85538 15.7241 4.71455 15.6447 4.59426C15.5653 4.47397 15.4525 4.37944 15.3202 4.32226L9.282 1.64851C9.18591 1.60615 9.08204 1.58434 8.97704 1.58447C8.87204 1.5846 8.76822 1.60667 8.67225 1.64926L2.6775 4.32376C2.54715 4.38077 2.43597 4.47409 2.35723 4.59259C2.2785 4.71109 2.23554 4.84975 2.2335 4.99201C2.208 6.77626 2.56725 13.0965 8.619 16.3283V16.3283ZM6.21975 7.28026L7.28025 6.21976L9 7.93951L10.7197 6.21976L11.7802 7.28026L10.0605 9.00001L11.7802 10.7198L10.7197 11.7803L9 10.0605L7.28025 11.7803L6.21975 10.7198L7.9395 9.00001L6.21975 7.28026Z" fill="#0EB1D2"/>
</svg>
