<svg width="18" height="18" viewBox="0 0 18 18" fill="none" xmlns="http://www.w3.org/2000/svg">
<path d="M15.75 3.75C15.75 3.35218 15.592 2.97064 15.3107 2.68934C15.0294 2.40804 14.6478 2.25 14.25 2.25H3.75C3.35218 2.25 2.97064 2.40804 2.68934 2.68934C2.40804 2.97064 2.25 3.35218 2.25 3.75V14.25C2.25 14.6478 2.40804 15.0294 2.68934 15.3107C2.97064 15.592 3.35218 15.75 3.75 15.75H14.25C14.6478 15.75 15.0294 15.592 15.3107 15.3107C15.592 15.0294 15.75 14.6478 15.75 14.25V3.75ZM12.1553 11.0948L11.0948 12.1553L9 10.0605L6.90525 12.1553L5.84475 11.0948L7.9395 9L5.84475 6.90525L6.90525 5.84475L9 7.9395L11.0948 5.84475L12.1553 6.90525L10.0605 9L12.1553 11.0948Z" fill="#0EB1D2"/>
</svg>
