<svg width="20" height="20" viewBox="0 0 20 20" fill="none" xmlns="http://www.w3.org/2000/svg">
<path d="M16.6667 9.16591H18.3333C18.3333 4.89091 15.1058 1.66675 10.825 1.66675V3.33341C14.21 3.33341 16.6667 5.78591 16.6667 9.16591Z" fill="#0EB1D2"/>
<path d="M10.8333 6.66678C12.5858 6.66678 13.3333 7.41428 13.3333 9.16678H15C15 6.47928 13.5208 5.00012 10.8333 5.00012V6.66678ZM13.685 11.2026C13.5249 11.0571 13.3144 10.9795 13.0982 10.9861C12.8819 10.9928 12.6767 11.0833 12.5258 11.2385L10.5317 13.2893C10.0517 13.1976 9.08666 12.8968 8.09332 11.906C7.09999 10.9118 6.79916 9.94428 6.70999 9.46762L8.75916 7.47262C8.9145 7.32189 9.0051 7.11664 9.01179 6.90029C9.01848 6.68394 8.94073 6.47349 8.79499 6.31345L5.71582 2.92762C5.57003 2.76708 5.36739 2.6697 5.15095 2.65617C4.93451 2.64263 4.72132 2.714 4.55666 2.85512L2.74832 4.40595C2.60425 4.55055 2.51826 4.74299 2.50666 4.94678C2.49416 5.15512 2.25582 10.0901 6.08249 13.9185C9.42082 17.256 13.6025 17.5001 14.7542 17.5001C14.9225 17.5001 15.0258 17.4951 15.0533 17.4935C15.2571 17.482 15.4494 17.3957 15.5933 17.251L17.1433 15.4418C17.2845 15.2772 17.3561 15.0641 17.3427 14.8477C17.3293 14.6312 17.2321 14.4285 17.0717 14.2826L13.685 11.2026Z" fill="#0EB1D2"/>
</svg>
